<?xml version="1.0" encoding="iso-8859-1"?>
<!-- Uploaded to: SVG Repo, www.svgrepo.com, Generator: SVG Repo Mixer Tools -->
<svg version="1.1" id="Layer_1" xmlns="http://www.w3.org/2000/svg" xmlns:xlink="http://www.w3.org/1999/xlink" 
	 viewBox="0 0 512 512" xml:space="preserve">
<rect x="8.017" y="12.292" style="fill:#E6EAEA;" width="495.967" height="487.415"/>
<rect x="8.017" y="12.292" style="fill:#CDD4D5;" width="247.983" height="487.415"/>
<polygon style="fill:#FFD1A9;" points="256,354.338 149.111,251.724 50.772,358.614 50.772,456.952 461.228,456.952 
	461.228,149.111 362.889,251.724 "/>
<polygon style="fill:#FF8C29;" points="149.111,251.724 50.772,358.614 50.772,456.952 256,456.952 256,354.338 "/>
<path style="fill:#687F82;" d="M461.228,47.031H50.772c-4.428,0-8.017,3.589-8.017,8.017v401.904c0,4.427,3.588,8.017,8.017,8.017
	h410.455c4.428,0,8.017-3.589,8.017-8.017V55.048C469.244,50.621,465.656,47.031,461.228,47.031z M354.873,243.708h-90.856v-86.58
	h90.856V243.708z M370.906,157.127h82.305v86.58h-82.305V157.127z M264.017,141.094V63.065h90.856v78.029H264.017z M247.983,141.094
	h-90.856V63.065h90.856V141.094z M247.983,157.127v86.58h-90.856v-86.58H247.983z M141.094,243.708H58.789v-86.58h82.305V243.708z
	 M58.789,259.741h82.305v86.58H58.789V259.741z M157.127,259.741h90.856v86.58h-90.856V259.741z M247.983,362.355v86.58h-90.856
	v-86.58H247.983z M264.017,362.355h90.856v86.58h-90.856V362.355z M264.017,346.322v-86.58h90.856v86.58H264.017z M370.906,259.741
	h82.305v86.58h-82.305V259.741z M453.211,141.094h-82.305V63.065h82.305V141.094z M141.094,63.065v78.029H58.789V63.065H141.094z
	 M58.789,362.355h82.305v86.58H58.789V362.355z M370.906,448.935v-86.58h82.305v86.58H370.906z"/>
<path style="fill:#365558;" d="M50.772,47.031c-4.428,0-8.017,3.589-8.017,8.017v401.904c0,4.427,3.588,8.017,8.017,8.017H256
	V47.031H50.772z M141.094,448.935H58.789v-86.58h82.305V448.935z M141.094,346.322H58.789v-86.58h82.305V346.322z M141.094,243.708
	H58.789v-86.58h82.305V243.708z M141.094,141.094H58.789V63.065h82.305V141.094z M247.983,448.935h-90.856v-86.58h90.856V448.935z
	 M247.983,346.322h-90.856v-86.58h90.856V346.322z M247.983,243.708h-90.856v-86.58h90.856V243.708z M157.127,141.094V63.065h90.856
	v78.029H157.127z"/>
<circle style="fill:#F0353D;" cx="50.772" cy="354.338" r="21.378"/>
<circle style="fill:#0295AA;" cx="149.111" cy="251.724" r="21.378"/>
<circle style="fill:#FD6A33;" cx="256" cy="354.338" r="21.378"/>
<path style="fill:#F0353D;" d="M234.622,354.338c0,11.807,9.571,21.378,21.378,21.378V332.96
	C244.193,332.96,234.622,342.531,234.622,354.338z"/>
<g>
	<circle style="fill:#4ACFD9;" cx="362.889" cy="251.724" r="21.378"/>
	<circle style="fill:#4ACFD9;" cx="456.952" cy="149.111" r="21.378"/>
</g>
<path d="M503.983,4.276H8.017C3.588,4.276,0,7.865,0,12.292v487.415c0,4.427,3.588,8.017,8.017,8.017h495.967
	c4.428,0,8.017-3.589,8.017-8.017V12.292C512,7.865,508.412,4.276,503.983,4.276z M495.967,491.691H16.033V20.309h479.933V491.691z"
	/>
<path d="M50.772,383.733c16.208,0,29.395-13.186,29.395-29.395c0-4.413-1.015-8.748-2.898-12.685l58.603-63.7
	c4.074,2.066,8.594,3.165,13.238,3.165c5.317,0,10.395-1.406,14.847-4.029l66.096,63.453c-2.248,4.207-3.448,8.921-3.448,13.795
	c0,16.209,13.187,29.395,29.395,29.395s29.395-13.186,29.395-29.395c0-4.874-1.2-9.588-3.448-13.795l66.096-63.453
	c4.452,2.624,9.53,4.029,14.847,4.029c16.208,0,29.395-13.186,29.395-29.395c0-5.32-1.412-10.405-4.049-14.861l57.92-60.438
	c3.417,1.365,7.061,2.08,10.796,2.08c1.968,0,3.942-0.199,5.868-0.589h0.001h0.001c13.632-2.768,23.525-14.882,23.525-28.806
	c0-13.923-9.894-26.037-23.524-28.806l0,0c0,0-0.001,0-0.002-0.001c-1.927-0.39-3.9-0.589-5.868-0.589
	c-16.208,0-29.395,13.186-29.395,29.395c0,6.32,2.078,12.455,5.809,17.486l-56.712,59.178c-4.209-2.244-8.92-3.445-13.764-3.445
	c-16.208,0-29.395,13.186-29.395,29.395c0,4.874,1.2,9.588,3.448,13.795l-66.096,63.453c-4.452-2.624-9.53-4.029-14.847-4.029
	s-10.395,1.406-14.847,4.029l-66.096-63.453c2.247-4.206,3.447-8.92,3.447-13.794c0-16.209-13.187-29.395-29.395-29.395
	s-29.395,13.186-29.395,29.395c0,5.452,1.55,10.77,4.37,15.359l-57.488,62.49c-4.671-2.99-10.134-4.629-15.825-4.629
	c-16.208,0-29.395,13.186-29.395,29.395C21.378,370.547,34.565,383.733,50.772,383.733z M256,367.699
	c-7.368,0-13.361-5.993-13.361-13.361c0-3.45,1.325-6.732,3.73-9.238c0.001-0.001,0.002-0.002,0.003-0.003
	c2.551-2.656,5.97-4.12,9.628-4.12c3.658,0,7.076,1.463,9.628,4.12c0.001,0.001,0.002,0.002,0.003,0.003
	c2.406,2.507,3.73,5.787,3.73,9.238C269.361,361.706,263.368,367.699,256,367.699z M456.952,135.749c0.9,0,1.801,0.091,2.683,0.269
	l0,0c6.188,1.257,10.678,6.763,10.678,13.092c0,6.329-4.49,11.835-10.678,13.092l0,0c-3.584,0.727-7.366-0.063-10.395-2.231
	c-0.001-0.001-0.002-0.001-0.002-0.001l0,0c-0.542-0.388-0.966-0.723-1.294-1.025c-0.001-0.001-0.002-0.002-0.003-0.002
	c-2.805-2.573-4.349-6.064-4.349-9.831C443.591,141.743,449.584,135.749,456.952,135.749z M362.889,238.363
	c3.326,0,6.522,1.251,9.002,3.521c0.006,0.005,0.011,0.012,0.017,0.017l0.201,0.196c0.001,0.001,0.002,0.002,0.003,0.003l0,0l0,0
	c2.668,2.556,4.137,5.973,4.137,9.623c0,7.368-5.993,13.361-13.361,13.361c-3.658,0-7.076-1.463-9.628-4.121
	c-0.001-0.001-0.002-0.002-0.003-0.003c-2.405-2.507-3.73-5.787-3.73-9.238C349.528,244.357,355.521,238.363,362.889,238.363z
	 M149.111,238.363c7.368,0,13.361,5.993,13.361,13.361c0,3.45-1.325,6.732-3.73,9.238c-0.001,0.001-0.002,0.002-0.003,0.003
	c-2.551,2.656-5.97,4.121-9.628,4.121c-3.338,0-6.544-1.258-9.027-3.542c-0.001-0.001-0.001-0.001-0.002-0.002
	c-2.794-2.572-4.333-6.057-4.333-9.817C135.749,244.357,141.743,238.363,149.111,238.363z M50.772,340.977
	c3.99,0,7.741,1.766,10.295,4.844c0.001,0.001,0.001,0.002,0.002,0.003c2.005,2.421,3.065,5.365,3.065,8.514
	c0,7.368-5.993,13.361-13.361,13.361s-13.361-5.993-13.361-13.361S43.405,340.977,50.772,340.977z"/>
</svg>